<?xml version="1.0" standalone="no"?>
<!DOCTYPE svg PUBLIC "-//W3C//DTD SVG 20010904//EN"
 "http://www.w3.org/TR/2001/REC-SVG-20010904/DTD/svg10.dtd">
<svg version="1.0" xmlns="http://www.w3.org/2000/svg"
 width="499.000000pt" height="499.000000pt" viewBox="0 0 499.000000 499.000000"
 preserveAspectRatio="xMidYMid meet">

<g transform="translate(0.000000,499.000000) scale(0.100000,-0.100000)"
fill="#000000" stroke="none">
<path d="M3318 4736 c-66 -35 -180 -201 -207 -302 -9 -34 -17 -42 -45 -51 -85
-26 -209 -106 -282 -182 -41 -42 -77 -84 -80 -95 -3 -10 -16 -33 -28 -51 -46
-67 -97 -283 -116 -485 -20 -212 -29 -275 -48 -330 -39 -110 -60 -146 -118
-201 -76 -71 -168 -104 -289 -104 -69 1 -87 4 -134 30 -65 36 -88 66 -133 175
-57 138 -85 178 -147 211 -76 41 -123 39 -213 -8 -50 -27 -82 -52 -112 -90
-22 -28 -44 -52 -48 -52 -4 -1 -12 18 -19 42 -11 40 -32 101 -65 192 -16 43
-40 74 -92 118 -26 21 -44 27 -81 27 -43 0 -51 -4 -104 -54 -49 -47 -63 -68
-97 -153 -87 -218 -98 -387 -49 -758 20 -154 104 -425 176 -565 24 -47 43 -90
43 -96 0 -7 20 -38 44 -71 24 -32 50 -71 59 -88 21 -41 230 -253 292 -295 28
-18 72 -49 99 -67 26 -18 53 -33 59 -33 6 0 18 -6 26 -14 19 -18 176 -96 192
-96 6 0 40 -13 75 -30 47 -21 67 -37 75 -57 8 -19 10 -126 6 -335 -4 -271 -3
-312 12 -340 31 -62 123 -63 192 -1 37 33 39 39 39 93 0 53 -3 61 -31 84 -32
27 -67 33 -100 16 -19 -10 -19 -5 -19 236 0 222 2 246 16 240 15 -6 48 -13
254 -57 52 -11 131 -23 175 -26 l80 -6 -3 -241 c-2 -132 0 -255 3 -273 3 -18
17 -46 31 -63 32 -38 90 -41 136 -9 35 26 61 79 53 112 -6 21 -59 55 -78 49
-4 -1 -16 2 -26 7 -16 9 -19 29 -24 156 -3 81 -3 173 0 205 l6 58 72 11 c93
14 240 70 315 121 33 22 68 43 77 47 25 9 158 146 188 192 13 22 29 42 35 46
6 4 24 32 39 63 15 32 44 86 64 122 19 36 41 85 47 110 7 24 18 52 24 62 12
17 16 15 54 -23 34 -33 48 -40 74 -37 70 7 92 123 63 323 -16 110 -71 331 -94
372 -10 20 -8 55 24 388 8 88 20 225 26 305 6 80 13 165 15 190 12 151 15 494
6 565 -15 107 -49 211 -86 259 l-30 39 31 26 c34 28 103 161 103 199 0 64 -57
130 -102 118 -13 -3 -54 -30 -92 -61 -38 -30 -71 -53 -73 -51 -2 1 4 20 13 41
20 48 22 111 6 151 -24 56 -96 80 -154 50z m82 -77 c22 -41 -9 -147 -60 -205
-22 -26 -30 -45 -30 -74 0 -21 3 -41 8 -43 4 -3 32 -8 64 -12 l56 -7 29 43
c15 24 31 46 36 47 4 2 16 20 26 40 39 75 112 114 119 63 7 -50 -9 -88 -61
-143 -28 -30 -64 -58 -79 -62 -38 -9 -40 -52 -3 -66 55 -21 109 -133 136 -285
20 -116 5 -512 -36 -930 -19 -191 -32 -355 -45 -559 -20 -329 -78 -590 -167
-754 -20 -37 -40 -69 -44 -72 -4 -3 -14 -22 -22 -42 -23 -54 -125 -172 -209
-240 -69 -56 -167 -110 -268 -148 -165 -61 -420 -49 -725 35 -33 9 -87 23
-120 31 -33 9 -64 20 -69 25 -6 5 -18 9 -27 9 -9 0 -54 18 -99 41 -46 22 -106
51 -134 64 -28 14 -62 33 -76 43 -14 11 -58 41 -99 68 -98 63 -274 240 -349
350 -99 146 -195 377 -248 594 -24 99 -54 353 -54 459 0 99 22 256 47 331 8
25 34 86 59 136 35 71 51 95 74 104 29 12 64 7 88 -13 22 -17 91 -174 109
-246 9 -36 20 -82 25 -101 4 -19 20 -43 34 -53 24 -18 26 -18 44 -2 11 10 33
41 49 69 20 37 47 64 97 98 88 60 121 68 171 38 64 -39 81 -60 103 -128 30
-93 62 -150 111 -204 50 -52 72 -65 144 -84 138 -37 343 15 448 114 27 26 74
89 96 131 22 40 59 219 66 311 12 180 43 360 81 483 4 12 0 17 -13 18 -16 0
-16 1 -1 7 9 4 30 33 47 64 16 32 39 67 50 80 12 12 21 27 21 34 0 11 31 40
112 105 54 43 111 69 184 82 l69 13 6 60 c9 80 24 116 85 204 67 97 119 126
144 79z m240 -2449 c12 -47 24 -131 27 -187 5 -91 4 -103 -12 -109 -11 -5 -28
4 -51 27 l-34 35 10 149 c12 174 18 207 30 185 5 -9 18 -53 30 -100z m-1506
-1563 c26 -19 13 -62 -13 -47 -21 11 -34 37 -25 51 7 12 17 11 38 -4z"/>
<path d="M3392 4000 c-54 -33 -72 -74 -72 -165 0 -69 3 -85 25 -118 33 -47 64
-55 109 -28 49 31 74 123 61 222 -12 86 -65 124 -123 89z"/>
<path d="M2969 3961 c-28 -29 -29 -32 -29 -128 0 -112 15 -150 69 -172 26 -12
34 -11 56 3 48 31 65 73 65 159 0 43 -5 88 -11 100 -38 74 -99 89 -150 38z"/>
<path d="M3205 3600 c-16 -18 -17 -32 -11 -123 3 -57 11 -119 16 -138 6 -18
10 -51 10 -72 0 -50 15 -77 44 -77 13 0 29 -7 36 -15 19 -23 42 -18 79 17 l33
31 -4 83 c-4 73 -8 89 -40 141 -19 32 -43 74 -53 93 -38 77 -76 97 -110 60z
m125 -203 c33 -65 40 -139 17 -171 -10 -14 -18 -15 -39 -7 -14 5 -29 18 -31
28 -11 37 -18 174 -12 203 9 41 24 28 65 -53z"/>
<path d="M1849 2610 c-144 -25 -391 -207 -419 -310 -10 -36 -8 -45 10 -76 12
-18 33 -37 46 -40 14 -4 72 -2 130 2 58 5 108 6 111 1 2 -4 -13 -36 -35 -70
-47 -75 -62 -117 -62 -171 0 -51 21 -83 67 -102 46 -20 115 -2 280 72 42 19
43 19 31 -23 -11 -42 -5 -97 14 -120 26 -32 55 -33 105 -6 46 25 213 183 213
201 0 5 18 28 40 53 23 24 50 60 60 80 11 21 25 43 32 50 26 27 75 94 81 111
4 11 -3 22 -19 33 -23 15 -25 15 -49 -12 -13 -15 -30 -41 -36 -58 -7 -16 -31
-52 -54 -80 -22 -27 -54 -70 -70 -95 -31 -47 -240 -260 -256 -260 -13 0 -11
38 5 92 14 46 62 123 104 168 27 29 37 59 24 72 -11 11 -57 -10 -112 -51 -56
-42 -174 -117 -211 -135 -45 -21 -118 -34 -149 -26 -22 6 -25 11 -23 44 4 69
22 111 73 171 65 78 88 121 72 137 -14 14 -101 12 -139 -3 -38 -14 -205 -23
-222 -11 -11 8 -8 18 17 53 16 24 38 52 48 61 39 35 199 138 215 138 8 0 19 3
23 8 4 4 35 14 68 22 46 12 63 21 69 37 8 21 -11 55 -29 52 -4 -1 -28 -5 -53
-9z"/>
</g>
</svg>
